<svg xmlns="http://www.w3.org/2000/svg" version="1.1" xmlns:xlink="http://www.w3.org/1999/xlink" xmlns:svgjs="http://svgjs.com/svgjs" width="1000" height="1000"><g transform="matrix(26.31578947368421,0,0,26.31578947368421,0.0012554369475310523,-12.031335127981038)"><svg xmlns="http://www.w3.org/2000/svg" version="1.1" xmlns:xlink="http://www.w3.org/1999/xlink" xmlns:svgjs="http://svgjs.com/svgjs" width="38" height="38"><svg width="38" height="38" viewBox="0 0 38 38" fill="none" xmlns="http://www.w3.org/2000/svg">
<path d="M28.0645 32.225C27.7504 32.4787 27.4257 32.7218 27.0904 32.9496C24.7812 34.5189 21.9955 35.4349 19.0005 35.4349C16.0055 35.4349 13.2213 34.5174 10.9106 32.9496C10.5753 32.7218 10.2506 32.4802 9.93652 32.225C9.61942 31.9683 9.31446 31.7009 9.02011 31.4184C9.27046 31.0386 9.46315 30.6178 9.58453 30.1667H27.1663C27.0874 29.7945 27.0464 29.4086 27.0464 29.0137C27.0464 28.5731 27.0995 28.1463 27.1951 27.7361H9.54963C9.34632 27.0707 8.98977 26.4722 8.51943 25.9831L9.14453 24.8984L9.76356 23.8259L16.7095 11.781L17.3285 10.7085L17.9551 9.62239C18.2904 9.70443 18.6409 9.75 19.002 9.75C19.3631 9.75 19.7136 9.70594 20.0489 9.62239L20.6755 10.7085L21.2946 11.781L28.2405 23.8259L28.8595 24.8984C29.4558 24.35 30.1704 23.9292 30.9594 23.6801L30.3403 22.6076L23.3944 10.5627L22.7754 9.49023L22.1503 8.4056C22.519 8.02127 22.8194 7.57161 23.0288 7.07335C23.2488 6.55078 23.3701 5.97656 23.3701 5.375C23.3701 5.08637 23.3413 4.80534 23.2882 4.53342C22.8968 2.52062 21.1261 1 19.0005 1C16.8748 1 15.1042 2.5191 14.7128 4.53342C14.2804 4.64583 13.8555 4.77647 13.4368 4.92079C13.018 5.06662 12.6069 5.22765 12.2033 5.40538C6.22081 8.03038 2.04082 14.0111 2.04082 20.9685C2.04082 21.6612 2.08331 22.3448 2.16372 23.0163C2.21531 23.4507 2.2851 23.8806 2.36855 24.3045C3.07558 23.8503 3.89185 23.551 4.7673 23.4568C4.69902 23.0603 4.64592 22.6593 4.60951 22.2522C4.57158 21.8283 4.55185 21.4015 4.55185 20.9685C4.55185 15.2491 7.88522 10.2938 12.7085 7.94835C13.0711 7.77213 13.4429 7.61111 13.8222 7.46376C14.1984 7.31792 14.5823 7.1888 14.9722 7.07487C15.1816 7.57313 15.482 8.02279 15.8507 8.40712L15.2256 9.49175L14.6066 10.5642L7.66067 22.6092L7.04164 23.6816L6.41502 24.7678C6.07971 24.6858 5.72923 24.6402 5.36812 24.6402C5.25281 24.6402 5.13902 24.6463 5.02675 24.6554C4.14068 24.7237 3.32896 25.0564 2.67048 25.5759C1.65393 26.3765 1 27.6191 1 29.0152C1 31.4305 2.95572 33.3902 5.36964 33.3902C5.97502 33.3902 6.55157 33.2671 7.07502 33.0438C7.38453 33.3492 7.70467 33.6439 8.03694 33.9249C8.36618 34.2044 8.70756 34.4718 9.05804 34.727C11.8513 36.755 15.2863 37.9505 19.0005 37.9505C22.7147 37.9505 26.1497 36.755 28.9429 34.727C29.2934 34.4718 29.6348 34.2044 29.9641 33.9249C29.2085 33.5117 28.5576 32.9269 28.0645 32.225Z" fill="#2A283F"></path>
<path d="M35.3294 25.5761C35.4463 25.1598 35.5479 24.736 35.6329 24.3061C35.7178 23.8823 35.7861 23.4524 35.8377 23.0179C35.9181 22.3465 35.9606 21.6629 35.9606 20.9702C35.9606 14.0112 31.7791 8.03202 25.7966 5.40854C25.393 5.23233 24.9819 5.06978 24.5631 4.92395C24.5752 5.07434 24.5828 5.22473 24.5828 5.37816C24.5828 6.11644 24.4387 6.81978 24.1777 7.4654C24.557 7.61123 24.9288 7.77226 25.2914 7.94999C30.1147 10.2955 33.4481 15.2508 33.4481 20.9702C33.4481 21.4031 33.4283 21.8315 33.3904 22.2538C33.354 22.6609 33.3024 23.062 33.2326 23.4584C33.1628 23.864 33.0748 24.2621 32.9716 24.6555C32.8594 24.6464 32.7456 24.6403 32.6303 24.6403C32.2692 24.6403 31.9187 24.6844 31.5834 24.7679C30.7686 24.9684 30.0449 25.3983 29.482 25.9847C29.0117 26.4739 28.6551 27.0709 28.4518 27.7377C28.3289 28.1418 28.2621 28.5717 28.2621 29.0153C28.2621 29.4148 28.3168 29.8007 28.4169 30.1683C28.5398 30.618 28.7325 31.0403 28.9813 31.42C29.4532 32.1355 30.1283 32.7052 30.9249 33.0439C31.4483 33.2673 32.0249 33.3903 32.6303 33.3903C35.0427 33.3903 36.9999 31.4322 36.9999 29.0153C36.9999 27.6193 36.346 26.3766 35.3294 25.5761Z" fill="#00D8B9"></path>
</svg></svg></g></svg>