<?xml version="1.0" standalone="no"?>
<!DOCTYPE svg PUBLIC "-//W3C//DTD SVG 20010904//EN"
 "http://www.w3.org/TR/2001/REC-SVG-20010904/DTD/svg10.dtd">
<svg version="1.0" xmlns="http://www.w3.org/2000/svg"
 width="260.000000pt" height="260.000000pt" viewBox="0 0 260.000000 260.000000"
 preserveAspectRatio="xMidYMid meet">
<metadata>
Created by potrace 1.14, written by Peter Selinger 2001-2017
</metadata>
<g transform="translate(0.000000,260.000000) scale(0.100000,-0.100000)"
fill="#000000" stroke="none">
<path d="M0 1330 l0 -1270 465 0 465 0 0 -30 c0 -27 3 -30 30 -30 l30 0 0 650
0 650 30 0 30 0 0 -650 0 -650 30 0 c27 0 30 3 30 30 l0 30 190 0 190 0 0 -30
c0 -27 3 -30 30 -30 l30 0 0 650 0 650 30 0 30 0 0 -650 0 -650 30 0 c27 0 30
3 30 30 l0 30 465 0 465 0 0 1270 0 1270 -1300 0 -1300 0 0 -1270z m1730 465
l0 -65 -430 0 -430 0 0 65 0 65 430 0 430 0 0 -65z m-490 -185 l0 -60 -185 0
-185 0 0 60 0 60 185 0 185 0 0 -60z m490 0 l0 -60 -185 0 -185 0 0 60 0 60
185 0 185 0 0 -60z m0 -185 l0 -65 -430 0 -430 0 0 65 0 65 430 0 430 0 0 -65z
m-800 -250 l0 -125 -245 0 c-189 0 -245 3 -245 13 0 6 12 63 27 125 l27 112
218 0 218 0 0 -125z m560 95 l0 -30 -190 0 -190 0 0 30 0 30 190 0 190 0 0
-30z m643 -82 c15 -62 27 -119 27 -125 0 -10 -56 -13 -245 -13 l-245 0 0 125
0 125 218 0 218 0 27 -112z m-648 -43 l0 -30 -185 0 c-170 0 -185 1 -188 18
-9 46 -4 48 190 45 l183 -3 0 -30z m5 -125 l0 -30 -190 0 -190 0 0 30 0 30
190 0 190 0 0 -30z m-560 -155 l0 -125 -310 0 c-171 0 -310 3 -310 6 0 5 28
119 51 207 l10 37 279 0 280 0 0 -125z m1309 88 c23 -88 51 -202 51 -207 0 -3
-139 -6 -310 -6 l-310 0 0 125 0 125 280 0 279 0 10 -37z m-749 -53 l0 -30
-190 0 -190 0 0 30 0 30 190 0 190 0 0 -30z m-5 -125 l0 -30 -187 -3 -188 -2
0 28 c0 16 3 32 7 36 4 3 88 5 187 4 l181 -3 0 -30z m-555 -220 l0 -125 -370
0 c-256 0 -370 3 -370 11 0 10 47 202 55 227 3 9 81 12 345 12 l340 0 0 -125z
m560 95 l0 -30 -190 0 -190 0 0 30 0 30 190 0 190 0 0 -30z m892 -85 c15 -60
28 -116 28 -122 0 -10 -81 -13 -370 -13 l-370 0 0 125 0 125 342 -2 342 -3 28
-110z m-894 -37 l-3 -33 -185 0 c-170 0 -185 1 -188 18 -9 46 -3 47 193 47
l186 0 -3 -32z m2 -128 l0 -30 -190 0 -190 0 0 30 0 30 190 0 190 0 0 -30z
m-560 -155 l0 -125 -428 0 c-236 0 -431 2 -434 5 -3 3 8 60 25 125 l29 120
404 0 404 0 0 -125z m1577 5 c17 -65 28 -122 25 -125 -3 -3 -198 -5 -434 -5
l-428 0 0 125 0 125 404 0 404 0 29 -120z m-1017 30 l0 -30 -190 0 -190 0 0
30 0 30 190 0 190 0 0 -30z m-5 -125 l0 -30 -185 0 c-170 0 -185 1 -188 18 -9
46 -4 48 190 45 l183 -3 0 -30z"/>
</g>
</svg>
