<svg width="42" height="42" viewBox="0 0 42 42" fill="none" xmlns="http://www.w3.org/2000/svg">
<rect x="2" y="38" width="14" height="2" fill="#7575FF" fill-opacity="0.6"/>
<rect width="14" height="2" transform="matrix(1 0 0 -1 2 4)" fill="#7575FF" fill-opacity="0.6"/>
<rect x="26" y="38" width="14" height="2" fill="#7575FF" fill-opacity="0.6"/>
<rect width="14" height="2" transform="matrix(1 0 0 -1 26 4)" fill="#7575FF" fill-opacity="0.6"/>
<rect x="18" y="38" width="6" height="2" fill="#7575FF" fill-opacity="0.6"/>
<rect width="6" height="2" transform="matrix(1 0 0 -1 18 4)" fill="#7575FF" fill-opacity="0.6"/>
<rect x="14" y="36" width="2" height="2" fill="#7575FF" fill-opacity="0.6"/>
<rect width="2" height="2" transform="matrix(1 0 0 -1 14 6)" fill="#7575FF" fill-opacity="0.6"/>
<rect x="26" y="36" width="2" height="2" fill="#7575FF" fill-opacity="0.6"/>
<rect width="2" height="2" transform="matrix(1 0 0 -1 26 6)" fill="#7575FF" fill-opacity="0.6"/>
<rect x="2" y="4" width="2" height="8" fill="#7575FF" fill-opacity="0.6"/>
<rect width="2" height="8" transform="matrix(-1 0 0 1 40 4)" fill="#7575FF" fill-opacity="0.6"/>
<rect x="2" y="30" width="2" height="8" fill="#7575FF" fill-opacity="0.6"/>
<rect width="2" height="8" transform="matrix(-1 0 0 1 40 30)" fill="#7575FF" fill-opacity="0.6"/>
<rect x="4" y="10" width="2" height="2" fill="#7575FF" fill-opacity="0.6"/>
<rect width="2" height="2" transform="matrix(-1 0 0 1 38 10)" fill="#7575FF" fill-opacity="0.6"/>
<rect x="4" y="30" width="2" height="2" fill="#7575FF" fill-opacity="0.6"/>
<rect width="2" height="2" transform="matrix(-1 0 0 1 38 30)" fill="#7575FF" fill-opacity="0.6"/>
<rect x="14" y="34" width="14" height="2" fill="#7575FF" fill-opacity="0.6"/>
<rect width="14" height="2" transform="matrix(1 0 0 -1 14 8)" fill="#7575FF" fill-opacity="0.6"/>
<rect x="30" y="34" width="6" height="2" fill="#7575FF" fill-opacity="0.6"/>
<rect width="6" height="2" transform="matrix(1 0 0 -1 30 8)" fill="#7575FF" fill-opacity="0.6"/>
<rect x="6" y="34" width="6" height="2" fill="#7575FF" fill-opacity="0.6"/>
<rect width="6" height="2" transform="matrix(1 0 0 -1 6 8)" fill="#7575FF" fill-opacity="0.6"/>
<rect x="6" y="10" width="2" height="10" fill="#7575FF" fill-opacity="0.6"/>
<rect width="2" height="10" transform="matrix(-1 0 0 1 36 10)" fill="#7575FF" fill-opacity="0.6"/>
<rect x="6" y="22" width="2" height="10" fill="#7575FF" fill-opacity="0.6"/>
<rect width="2" height="10" transform="matrix(-1 0 0 1 36 22)" fill="#7575FF" fill-opacity="0.6"/>
<rect x="2" y="14" width="2" height="14" fill="#7575FF" fill-opacity="0.6"/>
<rect x="38" y="14" width="2" height="14" fill="#7575FF" fill-opacity="0.6"/>
<path fill-rule="evenodd" clip-rule="evenodd" d="M31 28V16L21 21L11 16V28H31Z" fill="white"/>
<path fill-rule="evenodd" clip-rule="evenodd" d="M11 16H31L21 11L11 16Z" fill="white"/>
<rect x="11" y="30" width="3" height="2" fill="#7575FF" fill-opacity="0.6"/>
<rect x="28" y="30" width="3" height="2" fill="#7575FF" fill-opacity="0.6"/>
<rect x="16" y="30" width="10" height="2" fill="#7575FF" fill-opacity="0.6"/>
<path d="M18 10L11 13V10H18Z" fill="#7575FF" fill-opacity="0.6"/>
<path d="M24 10L31 13V10H24Z" fill="#7575FF" fill-opacity="0.6"/>
</svg>
