<?xml version="1.0" encoding="UTF-8"?>
<svg width="42px" height="42px" viewBox="0 0 42 42" version="1.1" xmlns="http://www.w3.org/2000/svg" xmlns:xlink="http://www.w3.org/1999/xlink">
    <title>ec-linkedin</title>
    <g id="ec-linkedin" stroke="none" stroke-width="1" fill="none" fill-rule="evenodd">
        <path d="M24,38 L24,40 L18,40 L18,38 L24,38 Z M8,22 L8,32 L4,32 L4,38 L14,38 L14,34 L28,34 L28,38 L38,38 L38,32 L34,32 L34,22 L36,22 L36,30 L40,30 L40,40 L26,40 L26,36 L16,36 L16,40 L2,40 L2,30 L6,30 L6,22 L8,22 Z M36,34 L36,36 L30,36 L30,34 L36,34 Z M12,34 L12,36 L6,36 L6,34 L12,34 Z M4,14 L4,28 L2,28 L2,14 L4,14 Z M40,14 L40,28 L38,28 L38,14 L40,14 Z M16,2 L16,6 L26,6 L26,2 L40,2 L40,12 L36,12 L36,20 L34,20 L34,10 L38,10 L38,4 L28,4 L28,8 L14,8 L14,4 L4,4 L4,10 L8,10 L8,20 L6,20 L6,12 L2,12 L2,2 L16,2 Z M36,6 L36,8 L30,8 L30,6 L36,6 Z M12,6 L12,8 L6,8 L6,6 L12,6 Z M24,2 L24,4 L18,4 L18,2 L24,2 Z" id="Shape" fill-opacity="0.2" fill="#FFFFFF"></path>
        <path d="M31,11 L31,31 L11,31 L11,11 L31,11 Z M18,18 L16,18 L16,26 L18,26 L18,18 Z M21,18 L19,18 L19,26 L21,26 L21,18 Z M26,18 L22,18 L21,20 L24,20 L24,26 L26,26 L26,18 Z M18,15 L16,15 L16,17 L18,17 L18,15 Z" id="Combined-Shape" fill="#FFFFFF"></path>
    </g>
</svg>