<svg width="42" height="42" viewBox="0 0 42 42" fill="none" xmlns="http://www.w3.org/2000/svg">
<path fill-rule="evenodd" clip-rule="evenodd" d="M24 38V40H18V38H24ZM8 22V32H4V38H14V34H28V38H38V32H34V22H36V30H40V40H26V36H16V40H2V30H6V22H8ZM36 34V36H30V34H36ZM12 34V36H6V34H12ZM4 14V28H2V14H4ZM40 14V28H38V14H40ZM16 2V6H26V2H40V12H36V20H34V10H38V4H28V8H14V4H4V10H8V20H6V12H2V2H16ZM36 6V8H30V6H36ZM12 6V8H6V6H12ZM24 2V4H18V2H24Z" fill="#7575FF"/>
<path fill-rule="evenodd" clip-rule="evenodd" d="M31 11H11V31H31V11ZM16 15H18V17H16V15ZM18 18H16V26H18V18ZM21 18H19V26H21V20H24V26H26V20V18H22L21 20V18Z" fill="white"/>
</svg>
