<svg width="38" height="38" viewBox="0 0 38 38" fill="none" xmlns="http://www.w3.org/2000/svg">
<path fill-rule="evenodd" clip-rule="evenodd" d="M13 10C13 9.44772 13.4477 9 14 9H24C24.5523 9 25 9.44772 25 10V28C25 28.5523 24.5523 29 24 29H14C13.4477 29 13 28.5523 13 28V10ZM15 11H23V25H15V11ZM19 26C18.4477 26 18 26.4477 18 27C18 27.5523 18.4477 28 19 28C19.5523 28 20 27.5523 20 27C20 26.4477 19.5523 26 19 26Z" fill="#292737"/>
<rect x="0.5" y="0.5" width="37" height="37" rx="3.5" stroke="black"/>
</svg>
