<?xml version="1.0" encoding="UTF-8"?>
<svg width="42px" height="42px" viewBox="0 0 42 42" version="1.1" xmlns="http://www.w3.org/2000/svg" xmlns:xlink="http://www.w3.org/1999/xlink">
    <title>ec-phone</title>
    <g id="ec-phone" stroke="none" stroke-width="1" fill="none" fill-rule="evenodd">
        <rect id="Rectangle" fill-opacity="0.2" fill="#FFFFFF" x="2" y="38" width="14" height="2"></rect>
        <rect id="Rectangle" fill-opacity="0.2" fill="#FFFFFF" transform="translate(9.000000, 3.000000) scale(1, -1) translate(-9.000000, -3.000000) " x="2" y="2" width="14" height="2"></rect>
        <rect id="Rectangle" fill-opacity="0.2" fill="#FFFFFF" x="26" y="38" width="14" height="2"></rect>
        <rect id="Rectangle" fill-opacity="0.2" fill="#FFFFFF" transform="translate(33.000000, 3.000000) scale(1, -1) translate(-33.000000, -3.000000) " x="26" y="2" width="14" height="2"></rect>
        <rect id="Rectangle" fill-opacity="0.2" fill="#FFFFFF" x="18" y="38" width="6" height="2"></rect>
        <rect id="Rectangle" fill-opacity="0.2" fill="#FFFFFF" transform="translate(21.000000, 3.000000) scale(1, -1) translate(-21.000000, -3.000000) " x="18" y="2" width="6" height="2"></rect>
        <rect id="Rectangle" fill-opacity="0.2" fill="#FFFFFF" x="14" y="36" width="2" height="2"></rect>
        <rect id="Rectangle" fill-opacity="0.2" fill="#FFFFFF" transform="translate(15.000000, 5.000000) scale(1, -1) translate(-15.000000, -5.000000) " x="14" y="4" width="2" height="2"></rect>
        <rect id="Rectangle" fill-opacity="0.2" fill="#FFFFFF" x="26" y="36" width="2" height="2"></rect>
        <rect id="Rectangle" fill-opacity="0.2" fill="#FFFFFF" transform="translate(27.000000, 5.000000) scale(1, -1) translate(-27.000000, -5.000000) " x="26" y="4" width="2" height="2"></rect>
        <rect id="Rectangle" fill-opacity="0.2" fill="#FFFFFF" x="2" y="4" width="2" height="8"></rect>
        <rect id="Rectangle" fill-opacity="0.2" fill="#FFFFFF" transform="translate(39.000000, 8.000000) scale(-1, 1) translate(-39.000000, -8.000000) " x="38" y="4" width="2" height="8"></rect>
        <rect id="Rectangle" fill-opacity="0.2" fill="#FFFFFF" x="2" y="30" width="2" height="8"></rect>
        <rect id="Rectangle" fill-opacity="0.2" fill="#FFFFFF" transform="translate(39.000000, 34.000000) scale(-1, 1) translate(-39.000000, -34.000000) " x="38" y="30" width="2" height="8"></rect>
        <rect id="Rectangle" fill-opacity="0.2" fill="#FFFFFF" x="4" y="10" width="2" height="2"></rect>
        <rect id="Rectangle" fill-opacity="0.2" fill="#FFFFFF" transform="translate(37.000000, 11.000000) scale(-1, 1) translate(-37.000000, -11.000000) " x="36" y="10" width="2" height="2"></rect>
        <rect id="Rectangle" fill-opacity="0.2" fill="#FFFFFF" x="4" y="30" width="2" height="2"></rect>
        <rect id="Rectangle" fill-opacity="0.2" fill="#FFFFFF" transform="translate(37.000000, 31.000000) scale(-1, 1) translate(-37.000000, -31.000000) " x="36" y="30" width="2" height="2"></rect>
        <rect id="Rectangle" fill-opacity="0.2" fill="#FFFFFF" x="14" y="34" width="14" height="2"></rect>
        <rect id="Rectangle" fill-opacity="0.2" fill="#FFFFFF" transform="translate(21.000000, 7.000000) scale(1, -1) translate(-21.000000, -7.000000) " x="14" y="6" width="14" height="2"></rect>
        <rect id="Rectangle" fill-opacity="0.2" fill="#FFFFFF" x="30" y="34" width="6" height="2"></rect>
        <rect id="Rectangle" fill-opacity="0.2" fill="#FFFFFF" transform="translate(33.000000, 7.000000) scale(1, -1) translate(-33.000000, -7.000000) " x="30" y="6" width="6" height="2"></rect>
        <rect id="Rectangle" fill-opacity="0.2" fill="#FFFFFF" x="6" y="34" width="6" height="2"></rect>
        <rect id="Rectangle" fill-opacity="0.2" fill="#FFFFFF" transform="translate(9.000000, 7.000000) scale(1, -1) translate(-9.000000, -7.000000) " x="6" y="6" width="6" height="2"></rect>
        <rect id="Rectangle" fill-opacity="0.2" fill="#FFFFFF" x="6" y="10" width="2" height="10"></rect>
        <rect id="Rectangle" fill-opacity="0.2" fill="#FFFFFF" transform="translate(35.000000, 15.000000) scale(-1, 1) translate(-35.000000, -15.000000) " x="34" y="10" width="2" height="10"></rect>
        <rect id="Rectangle" fill-opacity="0.2" fill="#FFFFFF" x="6" y="22" width="2" height="10"></rect>
        <rect id="Rectangle" fill-opacity="0.2" fill="#FFFFFF" transform="translate(35.000000, 27.000000) scale(-1, 1) translate(-35.000000, -27.000000) " x="34" y="22" width="2" height="10"></rect>
        <rect id="Rectangle" fill-opacity="0.2" fill="#FFFFFF" x="2" y="14" width="2" height="14"></rect>
        <rect id="Rectangle" fill-opacity="0.2" fill="#FFFFFF" x="38" y="14" width="2" height="14"></rect>
        <path d="M24,11 C25.6568542,11 27,12.3431458 27,14 L27,28 C27,29.6568542 25.6568542,31 24,31 L18,31 C16.3431458,31 15,29.6568542 15,28 L15,14 C15,12.3431458 16.3431458,11 18,11 L24,11 Z M21,28 C20.4477153,28 20,28.4477153 20,29 C20,29.5522847 20.4477153,30 21,30 C21.5522847,30 22,29.5522847 22,29 C22,28.4477153 21.5522847,28 21,28 Z M26,13 L16,13 L16,27 L26,27 L26,13 Z" id="Combined-Shape" fill="#FFFFFF"></path>
        <rect id="Rectangle" fill-opacity="0.2" fill="#FFFFFF" x="10" y="10" width="2" height="2"></rect>
        <rect id="Rectangle" fill-opacity="0.2" fill="#FFFFFF" x="30" y="10" width="2" height="2"></rect>
        <polygon id="Rectangle" fill-opacity="0.2" fill="#FFFFFF" points="10 14 12 14 12 28 10 28"></polygon>
        <polygon id="Rectangle" fill-opacity="0.2" fill="#FFFFFF" points="30 14 32 14 32 28 30 28"></polygon>
        <rect id="Rectangle" fill-opacity="0.2" fill="#FFFFFF" x="10" y="30" width="2" height="2"></rect>
        <rect id="Rectangle" fill-opacity="0.2" fill="#FFFFFF" x="30" y="30" width="2" height="2"></rect>
    </g>
</svg>