<svg width="42" height="42" viewBox="0 0 42 42" fill="none" xmlns="http://www.w3.org/2000/svg">
<path fill-rule="evenodd" clip-rule="evenodd" d="M24 38V40H18V38H24ZM8 22V32H4V38H14V34H28V38H38V32H34V22H36V30H40V40H26V36H16V40H2V30H6V22H8ZM36 34V36H30V34H36ZM12 34V36H6V34H12ZM4 14V28H2V14H4ZM40 14V28H38V14H40ZM32 10V16H30V10H32ZM32 26V32H30V26H32ZM32 18V24H30V18H32ZM12 10V16H10V10H12ZM12 26V32H10V26H12ZM12 18V24H10V18H12ZM16 2V6H26V2H40V12H36V20H34V10H38V4H28V8H14V4H4V10H8V20H6V12H2V2H16ZM36 6V8H30V6H36ZM12 6V8H6V6H12ZM24 2V4H18V2H24Z" fill="#7575FF" fill-opacity="0.6"/>
<path d="M17.2083 21.6875H16.9167V20H17.2083C17.6823 20 18.0833 20.3867 18.0833 20.8438C18.0833 21.3359 17.6823 21.6875 17.2083 21.6875ZM21 20H21.2917C21.5833 20 21.875 20.2812 21.875 20.5625V22.8125C21.875 23.1289 21.5833 23.375 21.2917 23.375H21V20ZM22.1667 11V15.5C22.1667 16.1328 22.6771 16.625 23.3333 16.625H28V28.75C28 30.0156 26.9427 31 25.6667 31H16.3333C15.0208 31 14 30.0156 14 28.75V13.25C14 12.0195 15.0208 11 16.3333 11H22.1667ZM16.3333 18.875C16.0052 18.875 15.75 19.1562 15.75 19.4375V23.9375C15.75 24.2539 16.0052 24.5 16.3333 24.5C16.625 24.5 16.9167 24.2539 16.9167 23.9375V22.8125H17.2083C18.3021 22.8125 19.25 21.9336 19.25 20.8438C19.25 19.7891 18.3021 18.875 17.2083 18.875H16.3333ZM19.8333 23.9375C19.8333 24.2539 20.0885 24.5 20.4167 24.5H21.2917C22.2396 24.5 23.0417 23.7617 23.0417 22.8125V20.5625C23.0417 19.6484 22.2396 18.875 21.2917 18.875H20.4167C20.0885 18.875 19.8333 19.1562 19.8333 19.4375V23.9375ZM24.5 18.875C24.1719 18.875 23.9167 19.1562 23.9167 19.4375V23.9375C23.9167 24.2539 24.1719 24.5 24.5 24.5C24.7917 24.5 25.0833 24.2539 25.0833 23.9375V22.25H26.25C26.5417 22.25 26.8333 22.0039 26.8333 21.6875C26.8333 21.4062 26.5417 21.125 26.25 21.125H25.0833V20H26.25C26.5417 20 26.8333 19.7539 26.8333 19.4375C26.8333 19.1562 26.5417 18.875 26.25 18.875H24.5ZM23.3333 11L28 15.5H23.3333V11Z" fill="white"/>
</svg>
