<svg width="42" height="42" viewBox="0 0 42 42" fill="none" xmlns="http://www.w3.org/2000/svg">
<path fill-rule="evenodd" clip-rule="evenodd" d="M4 14V20H33L31 15L40 21L31 27L33 22H4V28H2V14H4Z" fill="white"/>
<path fill-rule="evenodd" clip-rule="evenodd" d="M8 24V32H4V38H14V34H28V38L35 32H25V30H40L29 40H26V36H16V40H2V30H6V24H8ZM24 38V40H18V38H24ZM12 34V36H6V34H12ZM12 24V32H10V24H12ZM23 30V32H18V30H23ZM30 24L29 27H16V32H14V24H30ZM16 2V6H26V2H29L40 12H25V10H35L28 4V8H14V4H4V10H8V18H6V12H2V2H16ZM12 10V18H10V10H12ZM14 18V10H16V15H29L30 18H14ZM23 10V12H18V10H23ZM12 6V8H6V6H12ZM24 2V4H18V2H24Z" fill="#7575FF"/>
</svg>
