<?xml version="1.0" encoding="UTF-8"?>
<svg width="42px" height="42px" viewBox="0 0 42 42" version="1.1" xmlns="http://www.w3.org/2000/svg" xmlns:xlink="http://www.w3.org/1999/xlink">
    <title>ec-x</title>
    <g id="ec-x" stroke="none" stroke-width="1" fill="none" fill-rule="evenodd">
        <polygon id="Path" fill="#FFFFFF" points="4 14 4 20 33 20 31 15 40 21 31 27 33 22 4 22 4 28 2 28 2 14"></polygon>
        <path d="M8,24 L8,32 L4,32 L4,38 L14,38 L14,34 L28,34 L28,38 L35,32 L25,32 L25,30 L40,30 L29,40 L26,40 L26,36 L16,36 L16,40 L2,40 L2,30 L6,30 L6,24 L8,24 Z M24,38 L24,40 L18,40 L18,38 L24,38 Z M12,34 L12,36 L6,36 L6,34 L12,34 Z M12,24 L12,32 L10,32 L10,24 L12,24 Z M23,30 L23,32 L18,32 L18,30 L23,30 Z M30,24 L29,27 L16,27 L16,32 L14,32 L14,24 L30,24 Z M16,2 L16,6 L26,6 L26,2 L29,2 L40,12 L25,12 L25,10 L35,10 L28,4 L28,8 L14,8 L14,4 L4,4 L4,10 L8,10 L8,18 L6,18 L6,12 L2,12 L2,2 L16,2 Z M12,10 L12,18 L10,18 L10,10 L12,10 Z M14,18 L14,10 L16,10 L16,15 L29,15 L30,18 L14,18 Z M23,10 L23,12 L18,12 L18,10 L23,10 Z M12,6 L12,8 L6,8 L6,6 L12,6 Z M24,2 L24,4 L18,4 L18,2 L24,2 Z" id="Shape" fill-opacity="0.2" fill="#FFFFFF"></path>
    </g>
</svg>