<svg width="42" height="42" viewBox="0 0 42 42" fill="none" xmlns="http://www.w3.org/2000/svg">
<g clip-path="url(#clip0_0_203)">
<path fill-rule="evenodd" clip-rule="evenodd" d="M28 12H14V14H28V12ZM28 15H22V17H28V15ZM14 18H28V20H14V18ZM15 21H8L7 25H15V21ZM15 26H6L5 30H15V26ZM4 31H15V35H3L4 31ZM15 36H2L1 40H15V36ZM16 21H17V42H16V21ZM24 21H18V22H24V21ZM18 23H24V24H18V23ZM24 25H18V26H24V25ZM18 27H24V28H18V27ZM24 29H18V30H24V29ZM24 31H18V32H24V31ZM18 37H24V38H18V37ZM24 33H18V34H24V33ZM18 39H24V40H18V39ZM24 35H18V36H24V35ZM34 21H27V25H35L34 21ZM27 26H36L37 30H27V26ZM38 31H27V35H39L38 31ZM27 36H40L41 40H27V36ZM26 21H25V42H26V21ZM24 41H18V42H24V41ZM14 15H20V17H14V15ZM42 41H27V42H42V41ZM0 41H15V42H0V41Z" fill="white"/>
<path fill-rule="evenodd" clip-rule="evenodd" d="M42 17V35L40 28.6111V17H42ZM2 17V28.6111L0 35V17H2ZM12 17V19H6L4 26V17H12ZM38 17V26L36 19H30V17H38ZM42 0V15H40V2H22V0H42ZM38 4V15H30V10H22V4H38ZM20 4V10H12V15H4V4H20ZM2 15H0V0H20V2H2V15Z" fill="#7575FF"/>
</g>
<defs>
<clipPath id="clip0_0_203">
<rect width="42" height="42" fill="white"/>
</clipPath>
</defs>
</svg>
