<?xml version="1.0" encoding="UTF-8"?>
<svg width="42px" height="42px" viewBox="0 0 42 42" version="1.1" xmlns="http://www.w3.org/2000/svg" xmlns:xlink="http://www.w3.org/1999/xlink">
    <title>el-castillo-emblem</title>
    <g id="el-castillo-emblem" stroke="none" stroke-width="1" fill="none" fill-rule="evenodd">
        <g id="Group" transform="translate(0.000000, 12.000000)" fill="#FFFFFF">
            <path d="M17,9 L17,30 L16,30 L16,9 L17,9 Z M26,9 L26,30 L25,30 L25,9 L26,9 Z M24,29 L24,30 L18,30 L18,29 L24,29 Z M42,29 L42,30 L27,30 L27,29 L42,29 Z M15,29 L15,30 L0,30 L0,29 L15,29 Z M15,24 L15,28 L1,28 L2,24 L15,24 Z M24,27 L24,28 L18,28 L18,27 L24,27 Z M40,24 L41,28 L27,28 L27,24 L40,24 Z M24,25 L24,26 L18,26 L18,25 L24,25 Z M24,23 L24,24 L18,24 L18,23 L24,23 Z M15,19 L15,23 L3,23 L4,19 L15,19 Z M38,19 L39,23 L27,23 L27,19 L38,19 Z M24,21 L24,22 L18,22 L18,21 L24,21 Z M24,19 L24,20 L18,20 L18,19 L24,19 Z M15,14 L15,18 L5,18 L6,14 L15,14 Z M24,17 L24,18 L18,18 L18,17 L24,17 Z M36,14 L37,18 L27,18 L27,14 L36,14 Z M24,15 L24,16 L18,16 L18,15 L24,15 Z M24,13 L24,14 L18,14 L18,13 L24,13 Z M15,9 L15,13 L7,13 L8,9 L15,9 Z M34,9 L35,13 L27,13 L27,9 L34,9 Z M24,11 L24,12 L18,12 L18,11 L24,11 Z M24,9 L24,10 L18,10 L18,9 L24,9 Z M28,6 L28,8 L14,8 L14,6 L28,6 Z M28,3 L28,5 L22,5 L22,3 L28,3 Z M20,3 L20,5 L14,5 L14,3 L20,3 Z M28,0 L28,2 L14,2 L14,0 L28,0 Z" id="Combined-Shape"></path>
        </g>
        <path d="M42,17 L42,35 L40,28.6111111 L40,17 L42,17 Z M2,17 L2,28.6111111 L0,35 L0,17 L2,17 Z M12,17 L12,19 L6,19 L4,26 L4,17 L12,17 Z M38,17 L38,26 L36,19 L30,19 L30,17 L38,17 Z M42,0 L42,15 L40,15 L40,2 L22,2 L22,0 L42,0 Z M38,4 L38,15 L30,15 L30,10 L22,10 L22,4 L38,4 Z M20,4 L20,10 L12,10 L12,15 L4,15 L4,4 L20,4 Z M2,15 L0,15 L0,0 L20,0 L20,2 L2,2 L2,15 Z" id="Shape" fill-opacity="0.2" fill="#FFFFFF"></path>
    </g>
</svg>